PathFileType	4	(X/Y/Z)	C:\Users\ebm\Documents\Erivelton\Erivelton2\wc1.trc
DataRate	CameraRate	NumFrames	NumMarkers	Units	OrigDataRate	OrigDataStartFrame	OrigNumFrames
150.00	150.00	       8	28	mm	150.00	469	       750
Frame#	Time	IJ			PX			C7			T8			RAC			RAS			RPS			RAI			RPI			RLE			RME			RRS			RUS			R3M			R5M			LAC			LAS			LPS			LAI			LPI			LLE			LME			LRS			LUS			L3M			L5M			RW			LW			V_mid_elbow_r			V_mid_elbow_l			V_mid_wrist_r			V_mid_wrist_l			V_mid_trunk_low			V_mid_trunk_upp			
		X1	Y1	Z1	X2	Y2	Z2	X3	Y3	Z3	X4	Y4	Z4	X5	Y5	Z5	X6	Y6	Z6	X7	Y7	Z7	X8	Y8	Z8	X9	Y9	Z9	X10	Y10	Z10	X11	Y11	Z11	X12	Y12	Z12	X13	Y13	Z13	X14	Y14	Z14	X15	Y15	Z15	X16	Y16	Z16	X17	Y17	Z17	X18	Y18	Z18	X19	Y19	Z19	X20	Y20	Z20	X21	Y21	Z21	X22	Y22	Z22	X23	Y23	Z23	X24	Y24	Z24	X25	Y25	Z25	X26	Y26	Z26	X27	Y27	Z27	X28	Y28	Z28	

469	3.120	2457.87744	1028.26257	-200.94405	2479.45264	863.17505	-185.87141	2323.12427	1119.17908	-207.23424	2257.11792	965.10083	-195.83832	2378.04956	1064.38635	3.99746	2409.47314	871.85217	65.80666	2359.66895	871.95825	65.97019	2418.41016	797.34302	87.67617	2365.03687	794.08740	88.56483	2378.88818	733.34937	98.88882	2368.85059	710.76984	25.59896	2552.09717	528.62842	148.19398	2495.08545	514.34106	160.39645	2558.49780	440.32571	171.19853	2521.60962	430.65359	160.61642	2363.97607	1056.29150	-388.84204	2366.85571	883.85571	-458.82074	2322.32813	873.25177	-442.32748	2385.31201	806.87042	-477.00208	2335.74609	792.22577	-458.54495	2378.14136	722.18842	-489.39767	2355.17554	700.23846	-419.84070	2545.78955	517.35742	-510.11438	2493.19360	487.19400	-533.00702	2558.80493	425.13788	-532.03693	2519.04834	421.40485	-530.98273	2439.43970	299.35397	131.45023	2427.26025	297.68518	-497.25955	
470	3.127	2457.87476	1028.25708	-200.94550	2479.46460	863.17401	-185.87718	2323.10205	1119.17920	-207.24443	2257.13013	965.06793	-195.80736	2378.03003	1064.38318	3.99549	2409.47729	871.84875	65.80858	2359.66284	871.95227	65.96532	2418.40576	797.34784	87.66981	2365.03247	794.08002	88.56196	2378.88672	733.34863	98.89218	2368.85913	710.77441	25.59742	2552.09595	528.63013	148.18390	2495.09595	514.33698	160.39238	2558.49292	440.31927	171.18413	2521.60962	430.65039	160.61304	2363.95630	1056.28406	-388.83728	2366.83716	883.85828	-458.82605	2322.31152	873.23615	-442.31781	2385.29028	806.86182	-476.98651	2335.73267	792.21027	-458.54300	2378.12646	722.16486	-489.37665	2355.17432	700.22888	-419.82996	2545.79053	517.36224	-510.10828	2493.18384	487.19455	-532.99084	2558.80981	425.13339	-532.02112	2519.04565	421.40189	-530.97968	2439.43091	299.35388	131.45961	2427.27148	297.67969	-497.24628	
471	3.133	2457.86060	1028.26050	-200.94514	2479.46460	863.18097	-185.87527	2323.09961	1119.17114	-207.22960	2257.10693	965.08832	-195.83873	2378.02148	1064.37939	3.99202	2409.47510	871.85455	65.80108	2359.65991	871.94592	65.96676	2418.39917	797.34424	87.67319	2365.02930	794.07404	88.55546	2378.88770	733.33917	98.88292	2368.86694	710.77014	25.59030	2552.12646	528.60492	148.11880	2495.08789	514.33838	160.38745	2558.48364	440.32010	171.18520	2521.59985	430.64786	160.61447	2363.93945	1056.27673	-388.83746	2366.82568	883.84491	-458.81418	2322.28711	873.23651	-442.31982	2385.28442	806.85663	-476.98807	2335.72266	792.20422	-458.54477	2378.10742	722.15674	-489.36896	2355.14136	700.21765	-419.83377	2545.77368	517.35278	-510.10764	2493.17700	487.19431	-532.99261	2558.79980	425.12271	-532.01154	2519.04224	421.40042	-530.96844	2439.44360	299.35242	131.44905	2427.25415	297.68744	-497.25464	
472	3.140	2457.83789	1028.25549	-200.94304	2479.45264	863.16785	-185.87573	2323.08594	1119.16577	-207.21770	2257.11768	965.07190	-195.80098	2378.01221	1064.37781	3.99754	2409.47095	871.85889	65.79498	2359.65503	871.94482	65.96299	2418.38843	797.33807	87.67277	2365.02832	794.06860	88.56067	2378.88062	733.33807	98.87881	2368.84741	710.77179	25.60983	2552.08813	528.62109	148.18427	2495.08447	514.33405	160.38637	2558.48706	440.32132	171.17734	2521.59351	430.63898	160.61523	2363.91797	1056.27661	-388.83118	2366.80493	883.84430	-458.81375	2322.28003	873.22479	-442.31870	2385.27148	806.85236	-476.98343	2335.70117	792.19818	-458.53775	2378.09717	722.15601	-489.36719	2355.12915	700.19464	-419.81067	2545.77246	517.35406	-510.08932	2493.15649	487.18930	-532.98804	2558.81763	425.10229	-532.02393	2519.03223	421.37741	-530.94092	2439.44116	299.36050	131.45625	2427.25708	297.67816	-497.25052	
473	3.147	2457.82910	1028.25269	-200.94334	2479.46631	863.17596	-185.88213	2323.07373	1119.16309	-207.21053	2257.09473	965.05994	-195.79398	2377.99731	1064.37744	3.99901	2409.45044	871.84094	65.80016	2359.65698	871.94617	65.96249	2418.38818	797.33313	87.67227	2365.01782	794.07141	88.55673	2378.88843	733.32990	98.86189	2368.85449	710.77240	25.59189	2552.10376	528.62640	148.18558	2495.09058	514.33813	160.39189	2558.48413	440.31897	171.17957	2521.59302	430.64401	160.61095	2363.90723	1056.27356	-388.83804	2366.78833	883.83966	-458.80579	2322.27197	873.23138	-442.32297	2385.25391	806.84491	-476.98624	2335.69897	792.19629	-458.52997	2378.07446	722.14734	-489.35941	2355.13867	700.18457	-419.80634	2545.75513	517.35413	-510.08780	2493.17261	487.18829	-532.98145	2558.80151	425.09650	-532.02130	2519.03516	421.38763	-530.95886	2439.44604	299.35144	131.45088	2427.25391	297.68784	-497.25360	
474	3.153	2457.80933	1028.26624	-200.95038	2479.46948	863.17755	-185.88712	2323.06787	1119.17102	-207.21257	2257.09375	965.07172	-195.78723	2377.98535	1064.37134	3.99834	2409.43848	871.84656	65.79809	2359.64404	871.94226	65.95796	2418.40039	797.34589	87.66587	2365.02075	794.06970	88.55119	2378.88501	733.33789	98.87496	2368.86060	710.78137	25.57675	2552.09595	528.62427	148.18449	2495.08350	514.33063	160.37889	2558.48315	440.31195	171.17497	2521.58887	430.64432	160.60994	2363.90356	1056.26428	-388.83334	2366.78857	883.83765	-458.80063	2322.25513	873.22003	-442.32166	2385.24365	806.84595	-476.97070	2335.68359	792.19318	-458.52786	2378.05688	722.14319	-489.34796	2355.10254	700.18988	-419.81036	2545.74316	517.35248	-510.08231	2493.14648	487.18542	-532.96924	2558.77710	425.12561	-531.98358	2519.02783	421.38123	-530.92279	2439.44019	299.35806	131.45334	2427.24512	297.69205	-497.25699	
475	3.160	2457.80151	1028.25598	-200.94005	2479.45752	863.17456	-185.89766	2323.04688	1119.16943	-207.19772	2257.09033	965.05194	-195.77760	2377.98071	1064.37512	3.99615	2409.44092	871.84558	65.80705	2359.63525	871.93347	65.95627	2418.36621	797.33270	87.66808	2365.01245	794.06970	88.54934	2378.87646	733.33612	98.87042	2368.82788	710.76453	25.61086	2552.09106	528.62231	148.18491	2495.08154	514.33893	160.38882	2558.48315	440.30563	171.16812	2521.59009	430.64209	160.59410	2363.87769	1056.27100	-388.82388	2366.76611	883.83905	-458.79727	2322.23096	873.21863	-442.31155	2385.22290	806.84467	-476.97516	2335.67017	792.19214	-458.52350	2378.04297	722.15039	-489.35876	2355.13452	700.17902	-419.78876	2545.73193	517.35461	-510.09265	2493.13574	487.20248	-532.97571	2558.78003	425.08939	-531.99902	2519.01318	421.39047	-530.92584	2439.44019	299.35571	131.45004	2427.24829	297.68115	-497.23868	
476	3.167	2457.78931	1028.26172	-200.95078	2479.46289	863.17236	-185.90173	2323.05347	1119.17419	-207.20494	2257.08862	965.05847	-195.77193	2377.97461	1064.36621	3.99902	2409.44116	871.84973	65.80253	2359.63745	871.93921	65.95602	2418.37524	797.34247	87.66277	2365.01343	794.06500	88.54935	2378.87061	733.32666	98.87289	2368.82690	710.76471	25.60635	2552.12036	528.60559	148.10934	2495.08740	514.33466	160.38446	2558.47827	440.30728	171.18076	2521.59375	430.64557	160.60501	2363.87207	1056.28003	-388.82813	2366.74780	883.84607	-458.80148	2322.22974	873.23126	-442.30365	2385.21680	806.84747	-476.96741	2335.65112	792.20209	-458.51865	2378.01807	722.16132	-489.34744	2355.09473	700.19440	-419.79865	2545.71509	517.34204	-510.08676	2493.11182	487.17932	-532.96222	2558.75317	425.08249	-531.98840	2518.99023	421.39496	-530.93134	2439.44165	299.35306	131.45712	2427.24780	297.68295	-497.24182	
